<mxfile host="65bd71144e">
    <diagram id="G1Mfq-PvlLAGUP9QrzQ2" name="Page-1">
        <mxGraphModel dx="1170" dy="825" grid="1" gridSize="10" guides="1" tooltips="1" connect="1" arrows="1" fold="1" page="0" pageScale="1" pageWidth="827" pageHeight="1169" background="#ffffff" math="0" shadow="0">
            <root>
                <mxCell id="0"/>
                <mxCell id="1" parent="0"/>
                <mxCell id="7c8aWqgZJzVEwE5ocmlc-44" value="" style="group" parent="1" vertex="1" connectable="0">
                    <mxGeometry x="320" y="192.5" width="50" height="55" as="geometry"/>
                </mxCell>
                <mxCell id="7c8aWqgZJzVEwE5ocmlc-36" value="" style="shape=cube;whiteSpace=wrap;html=1;boundedLbl=1;backgroundOutline=1;darkOpacity=0.05;darkOpacity2=0.1;fillColor=none;size=10;flipH=1;" parent="7c8aWqgZJzVEwE5ocmlc-44" vertex="1">
                    <mxGeometry y="40" width="50" height="15" as="geometry"/>
                </mxCell>
                <mxCell id="7c8aWqgZJzVEwE5ocmlc-40" value="" style="shape=cube;whiteSpace=wrap;html=1;boundedLbl=1;backgroundOutline=1;darkOpacity=0.05;darkOpacity2=0.1;fillColor=default;size=10;flipH=1;" parent="7c8aWqgZJzVEwE5ocmlc-44" vertex="1">
                    <mxGeometry y="30" width="50" height="15" as="geometry"/>
                </mxCell>
                <mxCell id="7c8aWqgZJzVEwE5ocmlc-41" value="" style="shape=cube;whiteSpace=wrap;html=1;boundedLbl=1;backgroundOutline=1;darkOpacity=0.05;darkOpacity2=0.1;fillColor=default;size=10;flipH=1;" parent="7c8aWqgZJzVEwE5ocmlc-44" vertex="1">
                    <mxGeometry y="20" width="50" height="15" as="geometry"/>
                </mxCell>
                <mxCell id="7c8aWqgZJzVEwE5ocmlc-42" value="" style="shape=cube;whiteSpace=wrap;html=1;boundedLbl=1;backgroundOutline=1;darkOpacity=0.05;darkOpacity2=0.1;fillColor=default;size=10;flipH=1;" parent="7c8aWqgZJzVEwE5ocmlc-44" vertex="1">
                    <mxGeometry y="10" width="50" height="15" as="geometry"/>
                </mxCell>
                <mxCell id="7c8aWqgZJzVEwE5ocmlc-43" value="" style="shape=cube;whiteSpace=wrap;html=1;boundedLbl=1;backgroundOutline=1;darkOpacity=0.05;darkOpacity2=0.1;fillColor=default;size=10;flipH=1;" parent="7c8aWqgZJzVEwE5ocmlc-44" vertex="1">
                    <mxGeometry width="50" height="15" as="geometry"/>
                </mxCell>
                <mxCell id="zlFvbanUK3Qge2jHVLBS-4" value="" style="group" parent="1" vertex="1" connectable="0">
                    <mxGeometry x="80" y="190" width="50" height="60" as="geometry"/>
                </mxCell>
                <mxCell id="zlFvbanUK3Qge2jHVLBS-3" value="" style="rounded=0;whiteSpace=wrap;html=1;" parent="zlFvbanUK3Qge2jHVLBS-4" vertex="1">
                    <mxGeometry width="50" height="60" as="geometry"/>
                </mxCell>
                <mxCell id="7c8aWqgZJzVEwE5ocmlc-18" value="" style="endArrow=none;html=1;rounded=0;" parent="zlFvbanUK3Qge2jHVLBS-4" edge="1">
                    <mxGeometry width="50" height="50" relative="1" as="geometry">
                        <mxPoint x="10" y="30" as="sourcePoint"/>
                        <mxPoint x="39.999999999999986" y="30" as="targetPoint"/>
                    </mxGeometry>
                </mxCell>
                <mxCell id="7c8aWqgZJzVEwE5ocmlc-19" value="" style="endArrow=none;html=1;rounded=0;" parent="zlFvbanUK3Qge2jHVLBS-4" edge="1">
                    <mxGeometry width="50" height="50" relative="1" as="geometry">
                        <mxPoint x="10" y="55" as="sourcePoint"/>
                        <mxPoint x="10" y="45" as="targetPoint"/>
                    </mxGeometry>
                </mxCell>
                <mxCell id="7c8aWqgZJzVEwE5ocmlc-20" value="" style="endArrow=none;html=1;rounded=0;" parent="zlFvbanUK3Qge2jHVLBS-4" edge="1">
                    <mxGeometry width="50" height="50" relative="1" as="geometry">
                        <mxPoint x="10" y="55" as="sourcePoint"/>
                        <mxPoint x="39.999999999999986" y="55" as="targetPoint"/>
                    </mxGeometry>
                </mxCell>
                <mxCell id="7c8aWqgZJzVEwE5ocmlc-24" value="" style="endArrow=classic;html=1;endFill=1;rounded=0;" parent="zlFvbanUK3Qge2jHVLBS-4" edge="1">
                    <mxGeometry width="50" height="50" relative="1" as="geometry">
                        <mxPoint x="10" y="55" as="sourcePoint"/>
                        <mxPoint x="39.999999999999986" y="40" as="targetPoint"/>
                        <Array as="points">
                            <mxPoint x="19.999999999999986" y="45"/>
                            <mxPoint x="30" y="55"/>
                        </Array>
                    </mxGeometry>
                </mxCell>
                <mxCell id="7c8aWqgZJzVEwE5ocmlc-16" value="" style="endArrow=none;html=1;rounded=0;" parent="zlFvbanUK3Qge2jHVLBS-4" edge="1">
                    <mxGeometry width="50" height="50" relative="1" as="geometry">
                        <mxPoint x="10" y="10" as="sourcePoint"/>
                        <mxPoint x="39.999999999999986" y="10" as="targetPoint"/>
                    </mxGeometry>
                </mxCell>
                <mxCell id="7c8aWqgZJzVEwE5ocmlc-17" value="" style="endArrow=none;html=1;rounded=0;" parent="zlFvbanUK3Qge2jHVLBS-4" edge="1">
                    <mxGeometry width="50" height="50" relative="1" as="geometry">
                        <mxPoint x="10" y="20" as="sourcePoint"/>
                        <mxPoint x="30" y="20" as="targetPoint"/>
                    </mxGeometry>
                </mxCell>
                <mxCell id="zlFvbanUK3Qge2jHVLBS-6" value="" style="group" parent="1" vertex="1" connectable="0">
                    <mxGeometry x="200" y="190" width="50" height="60" as="geometry"/>
                </mxCell>
                <mxCell id="zlFvbanUK3Qge2jHVLBS-5" value="" style="rounded=0;whiteSpace=wrap;html=1;" parent="zlFvbanUK3Qge2jHVLBS-6" vertex="1">
                    <mxGeometry width="50" height="60" as="geometry"/>
                </mxCell>
                <mxCell id="7c8aWqgZJzVEwE5ocmlc-29" value="" style="endArrow=none;html=1;rounded=0;" parent="zlFvbanUK3Qge2jHVLBS-6" edge="1">
                    <mxGeometry width="50" height="50" relative="1" as="geometry">
                        <mxPoint x="10.000000000000057" y="10" as="sourcePoint"/>
                        <mxPoint x="39.99999999999994" y="10" as="targetPoint"/>
                    </mxGeometry>
                </mxCell>
                <mxCell id="7c8aWqgZJzVEwE5ocmlc-30" value="" style="endArrow=none;html=1;rounded=0;" parent="zlFvbanUK3Qge2jHVLBS-6" edge="1">
                    <mxGeometry width="50" height="50" relative="1" as="geometry">
                        <mxPoint x="10.000000000000057" y="20" as="sourcePoint"/>
                        <mxPoint x="29.999999999999943" y="20" as="targetPoint"/>
                    </mxGeometry>
                </mxCell>
                <mxCell id="7c8aWqgZJzVEwE5ocmlc-35" value="" style="shape=cube;whiteSpace=wrap;html=1;boundedLbl=1;backgroundOutline=1;darkOpacity=0.05;darkOpacity2=0.1;fillColor=none;size=10;" parent="zlFvbanUK3Qge2jHVLBS-6" vertex="1">
                    <mxGeometry x="10" y="30" width="30" height="20" as="geometry"/>
                </mxCell>
                <mxCell id="zlFvbanUK3Qge2jHVLBS-7" style="edgeStyle=orthogonalEdgeStyle;rounded=0;orthogonalLoop=1;jettySize=auto;html=1;" parent="1" edge="1">
                    <mxGeometry relative="1" as="geometry">
                        <mxPoint x="140" y="220" as="sourcePoint"/>
                        <mxPoint x="190" y="220" as="targetPoint"/>
                    </mxGeometry>
                </mxCell>
                <mxCell id="zlFvbanUK3Qge2jHVLBS-8" style="edgeStyle=orthogonalEdgeStyle;rounded=0;orthogonalLoop=1;jettySize=auto;html=1;" parent="1" edge="1">
                    <mxGeometry relative="1" as="geometry">
                        <Array as="points">
                            <mxPoint x="290" y="220"/>
                            <mxPoint x="290" y="220"/>
                        </Array>
                        <mxPoint x="260" y="220" as="sourcePoint"/>
                        <mxPoint x="310" y="220" as="targetPoint"/>
                    </mxGeometry>
                </mxCell>
                <mxCell id="zlFvbanUK3Qge2jHVLBS-9" value="" style="shape=parallelogram;perimeter=parallelogramPerimeter;whiteSpace=wrap;html=1;fixedSize=1;fillColor=#FFFFFF;" parent="1" vertex="1">
                    <mxGeometry x="440" y="240" width="50" height="10" as="geometry"/>
                </mxCell>
                <mxCell id="zlFvbanUK3Qge2jHVLBS-10" value="" style="shape=parallelogram;perimeter=parallelogramPerimeter;whiteSpace=wrap;html=1;fixedSize=1;fillColor=#FFFFFF;" parent="1" vertex="1">
                    <mxGeometry x="440" y="237.5" width="50" height="10" as="geometry"/>
                </mxCell>
                <mxCell id="zlFvbanUK3Qge2jHVLBS-11" value="" style="shape=parallelogram;perimeter=parallelogramPerimeter;whiteSpace=wrap;html=1;fixedSize=1;fillColor=#FFFFFF;" parent="1" vertex="1">
                    <mxGeometry x="440" y="230" width="50" height="10" as="geometry"/>
                </mxCell>
                <mxCell id="zlFvbanUK3Qge2jHVLBS-12" value="" style="shape=parallelogram;perimeter=parallelogramPerimeter;whiteSpace=wrap;html=1;fixedSize=1;fillColor=#FFFFFF;" parent="1" vertex="1">
                    <mxGeometry x="440" y="227.5" width="50" height="10" as="geometry"/>
                </mxCell>
                <mxCell id="zlFvbanUK3Qge2jHVLBS-13" value="" style="shape=parallelogram;perimeter=parallelogramPerimeter;whiteSpace=wrap;html=1;fixedSize=1;fillColor=#FFFFFF;" parent="1" vertex="1">
                    <mxGeometry x="440" y="220" width="50" height="10" as="geometry"/>
                </mxCell>
                <mxCell id="zlFvbanUK3Qge2jHVLBS-14" value="" style="shape=parallelogram;perimeter=parallelogramPerimeter;whiteSpace=wrap;html=1;fixedSize=1;fillColor=#FFFFFF;" parent="1" vertex="1">
                    <mxGeometry x="440" y="217.5" width="50" height="10" as="geometry"/>
                </mxCell>
                <mxCell id="zlFvbanUK3Qge2jHVLBS-15" value="" style="shape=parallelogram;perimeter=parallelogramPerimeter;whiteSpace=wrap;html=1;fixedSize=1;fillColor=#FFFFFF;" parent="1" vertex="1">
                    <mxGeometry x="440" y="210" width="50" height="10" as="geometry"/>
                </mxCell>
                <mxCell id="zlFvbanUK3Qge2jHVLBS-16" value="" style="shape=parallelogram;perimeter=parallelogramPerimeter;whiteSpace=wrap;html=1;fixedSize=1;fillColor=#FFFFFF;" parent="1" vertex="1">
                    <mxGeometry x="440" y="207.5" width="50" height="10" as="geometry"/>
                </mxCell>
                <mxCell id="zlFvbanUK3Qge2jHVLBS-17" value="" style="shape=parallelogram;perimeter=parallelogramPerimeter;whiteSpace=wrap;html=1;fixedSize=1;fillColor=#FFFFFF;" parent="1" vertex="1">
                    <mxGeometry x="440" y="200" width="50" height="10" as="geometry"/>
                </mxCell>
                <mxCell id="zlFvbanUK3Qge2jHVLBS-18" value="" style="shape=parallelogram;perimeter=parallelogramPerimeter;whiteSpace=wrap;html=1;fixedSize=1;fillColor=#FFFFFF;" parent="1" vertex="1">
                    <mxGeometry x="440" y="197.5" width="50" height="10" as="geometry"/>
                </mxCell>
                <mxCell id="zlFvbanUK3Qge2jHVLBS-19" value="Sprint Backlog" style="text;html=1;strokeColor=none;fillColor=none;align=center;verticalAlign=middle;whiteSpace=wrap;rounded=0;" parent="1" vertex="1">
                    <mxGeometry x="425" y="260" width="80" height="30" as="geometry"/>
                </mxCell>
                <mxCell id="zlFvbanUK3Qge2jHVLBS-20" value="Prioritized Product Backlog" style="text;html=1;strokeColor=none;fillColor=none;align=center;verticalAlign=middle;whiteSpace=wrap;rounded=0;" parent="1" vertex="1">
                    <mxGeometry x="297.5" y="260" width="95" height="30" as="geometry"/>
                </mxCell>
                <mxCell id="zlFvbanUK3Qge2jHVLBS-21" value="Project Vision Statement" style="text;html=1;strokeColor=none;fillColor=none;align=center;verticalAlign=middle;whiteSpace=wrap;rounded=0;" parent="1" vertex="1">
                    <mxGeometry x="177.5" y="260" width="95" height="30" as="geometry"/>
                </mxCell>
                <mxCell id="zlFvbanUK3Qge2jHVLBS-22" value="Project Business Case" style="text;html=1;strokeColor=none;fillColor=none;align=center;verticalAlign=middle;whiteSpace=wrap;rounded=0;" parent="1" vertex="1">
                    <mxGeometry x="57.5" y="260" width="95" height="30" as="geometry"/>
                </mxCell>
                <mxCell id="zlFvbanUK3Qge2jHVLBS-24" style="edgeStyle=orthogonalEdgeStyle;rounded=0;orthogonalLoop=1;jettySize=auto;html=1;" parent="1" edge="1">
                    <mxGeometry relative="1" as="geometry">
                        <mxPoint x="380" y="220" as="sourcePoint"/>
                        <mxPoint x="430" y="220" as="targetPoint"/>
                    </mxGeometry>
                </mxCell>
                <mxCell id="zlFvbanUK3Qge2jHVLBS-32" value="Release Planning Schedule" style="text;html=1;strokeColor=none;fillColor=none;align=center;verticalAlign=middle;whiteSpace=wrap;rounded=0;" parent="1" vertex="1">
                    <mxGeometry x="277.5" y="130" width="135" height="30" as="geometry"/>
                </mxCell>
                <mxCell id="zlFvbanUK3Qge2jHVLBS-33" style="edgeStyle=orthogonalEdgeStyle;rounded=0;orthogonalLoop=1;jettySize=auto;html=1;entryX=0.5;entryY=1;entryDx=0;entryDy=0;" parent="1" target="zlFvbanUK3Qge2jHVLBS-32" edge="1">
                    <mxGeometry relative="1" as="geometry">
                        <mxPoint x="345" y="190" as="sourcePoint"/>
                        <mxPoint x="450" y="230" as="targetPoint"/>
                    </mxGeometry>
                </mxCell>
                <mxCell id="zlFvbanUK3Qge2jHVLBS-34" value="" style="shape=cube;whiteSpace=wrap;html=1;boundedLbl=1;backgroundOutline=1;darkOpacity=0.05;darkOpacity2=0.1;size=10;" parent="1" vertex="1">
                    <mxGeometry x="640" y="195" width="50" height="60" as="geometry"/>
                </mxCell>
                <mxCell id="zlFvbanUK3Qge2jHVLBS-35" value="Accepted Deliverables" style="text;html=1;strokeColor=none;fillColor=none;align=center;verticalAlign=middle;whiteSpace=wrap;rounded=0;" parent="1" vertex="1">
                    <mxGeometry x="630" y="260" width="80" height="30" as="geometry"/>
                </mxCell>
                <mxCell id="zlFvbanUK3Qge2jHVLBS-37" value="" style="verticalLabelPosition=bottom;verticalAlign=top;html=1;shape=mxgraph.basic.tick" parent="1" vertex="1">
                    <mxGeometry x="660" y="217.5" width="20" height="20" as="geometry"/>
                </mxCell>
                <mxCell id="zlFvbanUK3Qge2jHVLBS-39" value="Daily Standup" style="text;html=1;strokeColor=none;fillColor=none;align=center;verticalAlign=middle;whiteSpace=wrap;rounded=0;" parent="1" vertex="1">
                    <mxGeometry x="530" y="130" width="80" height="30" as="geometry"/>
                </mxCell>
                <mxCell id="DNAeEn4sjJ3QBPFTxDFF-2" style="edgeStyle=orthogonalEdgeStyle;rounded=0;orthogonalLoop=1;jettySize=auto;html=1;" parent="1" edge="1">
                    <mxGeometry relative="1" as="geometry">
                        <mxPoint x="500" y="220" as="sourcePoint"/>
                        <mxPoint x="630" y="220" as="targetPoint"/>
                    </mxGeometry>
                </mxCell>
                <mxCell id="DNAeEn4sjJ3QBPFTxDFF-3" value="" style="rounded=0;whiteSpace=wrap;html=1;fillColor=#000000;" parent="1" vertex="1">
                    <mxGeometry x="340" y="90" width="10" height="10" as="geometry"/>
                </mxCell>
                <mxCell id="zlFvbanUK3Qge2jHVLBS-30" value="" style="rounded=0;whiteSpace=wrap;html=1;" parent="1" vertex="1">
                    <mxGeometry x="320" y="60" width="50" height="60" as="geometry"/>
                </mxCell>
                <mxCell id="7c8aWqgZJzVEwE5ocmlc-58" value="" style="endArrow=none;html=1;rounded=0;" parent="1" edge="1">
                    <mxGeometry width="50" height="50" relative="1" as="geometry">
                        <mxPoint x="329.76" y="80.35" as="sourcePoint"/>
                        <mxPoint x="329.76" y="109.66" as="targetPoint"/>
                    </mxGeometry>
                </mxCell>
                <mxCell id="7c8aWqgZJzVEwE5ocmlc-62" value="" style="endArrow=none;html=1;rounded=0;" parent="1" edge="1">
                    <mxGeometry width="50" height="50" relative="1" as="geometry">
                        <mxPoint x="340" y="80.35" as="sourcePoint"/>
                        <mxPoint x="340" y="109.66" as="targetPoint"/>
                    </mxGeometry>
                </mxCell>
                <mxCell id="7c8aWqgZJzVEwE5ocmlc-64" value="" style="endArrow=none;html=1;rounded=0;" parent="1" edge="1">
                    <mxGeometry width="50" height="50" relative="1" as="geometry">
                        <mxPoint x="359.76" y="80" as="sourcePoint"/>
                        <mxPoint x="359.76" y="110" as="targetPoint"/>
                    </mxGeometry>
                </mxCell>
                <mxCell id="7c8aWqgZJzVEwE5ocmlc-65" value="" style="endArrow=none;html=1;rounded=0;" parent="1" edge="1">
                    <mxGeometry width="50" height="50" relative="1" as="geometry">
                        <mxPoint x="360" y="80" as="sourcePoint"/>
                        <mxPoint x="330" y="80" as="targetPoint"/>
                    </mxGeometry>
                </mxCell>
                <mxCell id="7c8aWqgZJzVEwE5ocmlc-66" value="" style="endArrow=none;html=1;rounded=0;" parent="1" edge="1">
                    <mxGeometry width="50" height="50" relative="1" as="geometry">
                        <mxPoint x="360" y="90" as="sourcePoint"/>
                        <mxPoint x="330" y="90" as="targetPoint"/>
                    </mxGeometry>
                </mxCell>
                <mxCell id="7c8aWqgZJzVEwE5ocmlc-67" value="" style="endArrow=none;html=1;rounded=0;" parent="1" edge="1">
                    <mxGeometry width="50" height="50" relative="1" as="geometry">
                        <mxPoint x="360" y="100.00000000000001" as="sourcePoint"/>
                        <mxPoint x="330" y="100.00000000000001" as="targetPoint"/>
                    </mxGeometry>
                </mxCell>
                <mxCell id="7c8aWqgZJzVEwE5ocmlc-68" value="" style="endArrow=none;html=1;rounded=0;" parent="1" edge="1">
                    <mxGeometry width="50" height="50" relative="1" as="geometry">
                        <mxPoint x="360" y="110" as="sourcePoint"/>
                        <mxPoint x="330" y="110" as="targetPoint"/>
                    </mxGeometry>
                </mxCell>
                <mxCell id="7c8aWqgZJzVEwE5ocmlc-69" value="" style="endArrow=none;html=1;rounded=0;" parent="1" edge="1">
                    <mxGeometry width="50" height="50" relative="1" as="geometry">
                        <mxPoint x="350" y="80.35" as="sourcePoint"/>
                        <mxPoint x="350" y="109.66" as="targetPoint"/>
                    </mxGeometry>
                </mxCell>
                <mxCell id="7c8aWqgZJzVEwE5ocmlc-57" value="" style="rounded=0;whiteSpace=wrap;html=1;fillColor=#000000;" parent="1" vertex="1">
                    <mxGeometry x="320" y="60.00000000000001" width="50" height="9.69" as="geometry"/>
                </mxCell>
                <mxCell id="DNAeEn4sjJ3QBPFTxDFF-4" value="" style="rounded=0;whiteSpace=wrap;html=1;fillColor=#000000;" parent="1" vertex="1">
                    <mxGeometry x="340" y="90" width="10" height="10" as="geometry"/>
                </mxCell>
                <mxCell id="DNAeEn4sjJ3QBPFTxDFF-8" value="" style="endArrow=none;html=1;curved=1;" parent="1" edge="1">
                    <mxGeometry width="50" height="50" relative="1" as="geometry">
                        <mxPoint x="570" y="170" as="sourcePoint"/>
                        <mxPoint x="570" y="120" as="targetPoint"/>
                        <Array as="points">
                            <mxPoint x="520" y="170"/>
                            <mxPoint x="520" y="120"/>
                        </Array>
                    </mxGeometry>
                </mxCell>
                <mxCell id="DNAeEn4sjJ3QBPFTxDFF-12" value="" style="endArrow=none;html=1;curved=1;" parent="1" edge="1">
                    <mxGeometry width="50" height="50" relative="1" as="geometry">
                        <mxPoint x="570" y="220" as="sourcePoint"/>
                        <mxPoint x="570" y="170" as="targetPoint"/>
                        <Array as="points">
                            <mxPoint x="620" y="220"/>
                            <mxPoint x="620" y="170"/>
                        </Array>
                    </mxGeometry>
                </mxCell>
                <mxCell id="DNAeEn4sjJ3QBPFTxDFF-13" value="" style="endArrow=classic;html=1;curved=1;endFill=1;" parent="1" edge="1">
                    <mxGeometry width="50" height="50" relative="1" as="geometry">
                        <mxPoint x="570" y="170" as="sourcePoint"/>
                        <mxPoint x="540" y="220" as="targetPoint"/>
                        <Array as="points">
                            <mxPoint x="520" y="170"/>
                            <mxPoint x="510" y="210"/>
                        </Array>
                    </mxGeometry>
                </mxCell>
                <mxCell id="DNAeEn4sjJ3QBPFTxDFF-14" value="" style="endArrow=classic;html=1;curved=1;endFill=1;" parent="1" edge="1">
                    <mxGeometry width="50" height="50" relative="1" as="geometry">
                        <mxPoint x="570" y="120" as="sourcePoint"/>
                        <mxPoint x="600" y="170" as="targetPoint"/>
                        <Array as="points">
                            <mxPoint x="620" y="120"/>
                            <mxPoint x="630" y="160"/>
                        </Array>
                    </mxGeometry>
                </mxCell>
                <mxCell id="DNAeEn4sjJ3QBPFTxDFF-15" value="Create Deliverables" style="text;html=1;strokeColor=none;fillColor=none;align=center;verticalAlign=middle;whiteSpace=wrap;rounded=0;" parent="1" vertex="1">
                    <mxGeometry x="530" y="177.5" width="80" height="30" as="geometry"/>
                </mxCell>
            </root>
        </mxGraphModel>
    </diagram>
</mxfile>